<svg width="100" height="100" viewBox="0 0 100 100" fill="none" xmlns="http://www.w3.org/2000/svg">
<path fill-rule="evenodd" clip-rule="evenodd" d="M48.9143 7.27883C49.0733 7.71455 49.4913 8 49.9552 8V8C73.1814 8 91.9982 26.8105 91.9982 50C91.9982 73.1895 73.1814 92 49.9552 92C31.3236 92 15.5294 79.8956 10.0097 63.1362C9.44324 61.4165 7.92359 60.1475 6.11491 60.0629C3.45245 59.9382 1.37751 62.3542 2.17136 64.8987C8.51677 85.2365 27.5104 100 49.9552 100C77.5932 100 99.9982 77.6142 99.9982 50C99.9982 22.3858 77.5932 0 49.9552 0C49.6204 0 49.2864 0.00328423 48.9532 0.00982221C47.6249 0.0358862 46.7588 1.37305 47.2143 2.62109L48.9143 7.27883Z" fill="#FF1D30"/>
<rect width="6.00469" height="8.00063" rx="2" transform="matrix(-0.953182 0.302399 0.302872 0.953031 39.9824 0.12207)" fill="#FF1D30"/>
<rect width="6.00359" height="8.0021" rx="2" transform="matrix(-0.834319 0.551281 0.551942 0.833883 26.9883 3.99219)" fill="#FF1D30"/>
<rect width="6.00215" height="8.00402" rx="2" transform="matrix(-0.645343 0.763893 0.76444 0.644695 15.5615 12.1108)" fill="#FF1D30"/>
<rect width="6.00097" height="8.00559" rx="2" transform="matrix(-0.43357 0.90112 0.901411 0.432964 6.60547 22)" fill="#FF1D30"/>
<rect width="6.00026" height="8.00653" rx="2" transform="matrix(-0.226452 0.974022 0.974108 0.226083 1.68848 34.6099)" fill="#FF1D30"/>
<rect width="6" height="8.00689" rx="2" transform="matrix(0.0136891 0.999906 0.999906 -0.0136891 0 48.1099)" fill="#FF1D30"/>
<path d="M33.2435 67.1197C31.5855 65.4631 31.5855 62.7773 33.2435 61.1207L61.9494 32.4395C63.6074 30.7829 66.2956 30.7829 67.9536 32.4395V32.4395C69.6116 34.0961 69.6116 36.7819 67.9536 38.4385L39.2477 67.1197C37.5897 68.7763 34.9015 68.7763 33.2435 67.1197V67.1197Z" fill="#FF1D30"/>
<path d="M67.9227 66.9535C66.2661 68.6115 63.5803 68.6115 61.9237 66.9535L33.2424 38.2476C31.5859 36.5896 31.5859 33.9014 33.2424 32.2434V32.2434C34.899 30.5854 37.5849 30.5854 39.2415 32.2434L67.9227 60.9493C69.5793 62.6073 69.5793 65.2955 67.9227 66.9535V66.9535Z" fill="#FF1D30"/>
</svg>
