<svg width="100" height="100" viewBox="0 0 100 100" fill="none" xmlns="http://www.w3.org/2000/svg">
<path fill-rule="evenodd" clip-rule="evenodd" d="M48.9163 7.27883C49.0753 7.71455 49.4933 8 49.9572 8V8C73.1834 8 92.0002 26.8105 92.0002 50C92.0002 73.1895 73.1834 92 49.9572 92C31.3256 92 15.5314 79.8956 10.0117 63.1362C9.44523 61.4165 7.92558 60.1475 6.1169 60.0629C3.45444 59.9382 1.3795 62.3542 2.17335 64.8987C8.51876 85.2365 27.5124 100 49.9572 100C77.5952 100 100 77.6142 100 50C100 22.3858 77.5952 0 49.9572 0C49.6224 0 49.2884 0.00328423 48.9552 0.00982221C47.6269 0.0358862 46.7608 1.37305 47.2163 2.62109L48.9163 7.27883Z" fill="#64FDDC"/>
<rect width="6.00469" height="8.00063" rx="2" transform="matrix(-0.953182 0.302399 0.302872 0.953031 39.9824 0.12207)" fill="#64FDDC"/>
<rect width="6.00359" height="8.0021" rx="2" transform="matrix(-0.834319 0.551281 0.551942 0.833883 26.9883 3.99219)" fill="#64FDDC"/>
<rect width="6.00215" height="8.00402" rx="2" transform="matrix(-0.645343 0.763893 0.76444 0.644695 15.5615 12.1108)" fill="#64FDDC"/>
<rect width="6.00097" height="8.00559" rx="2" transform="matrix(-0.43357 0.90112 0.901411 0.432964 6.60547 22)" fill="#64FDDC"/>
<rect width="6.00026" height="8.00653" rx="2" transform="matrix(-0.226452 0.974022 0.974108 0.226083 1.68848 34.6099)" fill="#64FDDC"/>
<rect width="6" height="8.00689" rx="2" transform="matrix(0.0136891 0.999906 0.999906 -0.0136891 0 48.1099)" fill="#64FDDC"/>
<path fill-rule="evenodd" clip-rule="evenodd" d="M43.8046 69.1626C42.6683 69.2027 41.519 68.7895 40.6516 67.9228L25.2645 52.5489C23.6065 50.8924 23.6065 48.2065 25.2645 46.5499C26.9225 44.8933 29.6107 44.8933 31.2687 46.5499L43.8066 59.077L69.6631 33.2427C71.3211 31.5861 74.0093 31.5861 75.6673 33.2427C77.3253 34.8993 77.3253 37.5851 75.6673 39.2417L46.9614 67.923C46.093 68.7906 44.9421 69.2038 43.8046 69.1626Z" fill="#64FDDC"/>
</svg>
