<svg width="100" height="100" viewBox="0 0 100 100" fill="none" xmlns="http://www.w3.org/2000/svg">
<circle cx="50" cy="50" r="48" stroke="#64FDDC" stroke-width="4"/>
<path fill-rule="evenodd" clip-rule="evenodd" d="M83.12 34.5716C83.12 33.8877 82.5656 33.3333 81.8818 33.3333H21.8272C21.1433 33.3333 20.589 33.8937 20.589 34.5775C20.589 35.2614 21.1433 35.8217 21.8272 35.8217H79.3992C80.0831 35.8217 80.6374 36.3761 80.6374 37.0599V64.9084C80.6374 65.5923 81.1949 66.1467 81.8787 66.1467C82.5626 66.1467 83.12 65.5923 83.12 64.9084V34.5716ZM77.483 40.1579C77.483 39.474 76.9286 38.9197 76.2448 38.9197H19.9049C19.2211 38.9197 18.6667 39.474 18.6667 40.1579V66.78C18.6667 67.4639 19.2211 68.0183 19.9049 68.0183H76.2448C76.9286 68.0183 77.483 67.4639 77.483 66.78V40.1579ZM38.299 53.4813C38.299 58.9386 42.7229 63.3625 48.1801 63.3625C53.6373 63.3625 58.0612 58.9386 58.0612 53.4813C58.0612 48.0241 53.6373 43.6002 48.1801 43.6002C42.7229 43.6002 38.299 48.0241 38.299 53.4813ZM49.0035 49.3642V52.6579H52.2972L52.2973 59.2453H49.0035V60.8922H47.3567V59.2453H44.063V57.5985H47.3567V54.3048H44.063V47.7173H47.3567V46.0705H49.0035V47.7173H52.2972V49.3642H49.0035ZM45.7098 52.6579H47.3567V49.3642H45.7098V52.6579ZM49.0035 57.5985H50.6504V54.3048H49.0035V57.5985Z" fill="#64FDDC"/>
</svg>
