<svg width="100" height="100" viewBox="0 0 100 100" fill="none" xmlns="http://www.w3.org/2000/svg">
<circle cx="50" cy="50" r="48" stroke="#64FDDC" stroke-width="4"/>
<rect x="0.395482" y="0.128484" width="8.64044" height="22.6596" rx="2.62806" transform="matrix(0.894135 -0.447798 0.460224 0.887803 22.6494 57.4871)" fill="#64FDDC" stroke="#64FDDC" stroke-width="0.584013"/>
<path fill-rule="evenodd" clip-rule="evenodd" d="M40.3698 32.0398C39.7314 32.3078 38.6792 33.4441 39.5776 35.845C40.7006 38.8461 41.2751 43.1905 34.5139 53.0634L43.3231 69.939C44.1298 69.952 44.9816 69.9706 45.8639 69.9898C54.3629 70.175 65.699 70.422 66.8217 66.4336C67.118 65.6562 67.2929 63.9118 65.6224 63.1529C66.9364 62.0076 68.9264 59.1657 66.3738 56.9607C67.7941 55.4932 69.7142 52.0941 66.0981 50.1833C68.794 49.3997 74.9412 47.4812 76.3109 45.9104C78.0781 43.8839 77.4891 42.4364 75.4273 41.8574C73.9425 41.4404 66.8058 43.1255 62.9278 44.1012C62.9077 44.0999 62.8874 44.0987 62.8671 44.0975L49.2112 47.694C49.2039 41.7017 47.4254 30.1816 40.3698 32.0398Z" fill="#64FDDC"/>
<path d="M39.5776 35.845L39.3041 35.9473L39.3041 35.9473L39.5776 35.845ZM40.3698 32.0398L40.2955 31.7574L40.2757 31.7626L40.2568 31.7706L40.3698 32.0398ZM34.5139 53.0634L34.273 52.8984L34.1739 53.0431L34.2551 53.1985L34.5139 53.0634ZM43.3231 69.939L43.0643 70.0741L43.1447 70.2281L43.3184 70.2309L43.3231 69.939ZM45.8639 69.9898L45.8576 70.2818L45.8576 70.2818L45.8639 69.9898ZM66.8217 66.4336L66.5488 66.3296L66.5441 66.3418L66.5406 66.3545L66.8217 66.4336ZM65.6224 63.1529L65.4305 62.9327L65.0883 63.231L65.5016 63.4187L65.6224 63.1529ZM66.3738 56.9607L66.1639 56.7576L65.949 56.9797L66.1829 57.1817L66.3738 56.9607ZM66.0981 50.1833L66.0166 49.9029L65.3236 50.1043L65.9617 50.4414L66.0981 50.1833ZM76.3109 45.9104L76.531 46.1024L76.531 46.1024L76.3109 45.9104ZM75.4273 41.8574L75.5063 41.5763L75.5063 41.5763L75.4273 41.8574ZM62.9278 44.1012L62.9089 44.3926L62.9546 44.3956L62.9991 44.3844L62.9278 44.1012ZM62.8671 44.0975L62.8843 43.806L62.8378 43.8032L62.7928 43.8151L62.8671 44.0975ZM49.2112 47.694L48.9192 47.6944L48.9196 48.0728L49.2856 47.9764L49.2112 47.694ZM39.8511 35.7427C39.4206 34.5921 39.4704 33.782 39.671 33.2447C39.8734 32.7023 40.2381 32.4118 40.4829 32.309L40.2568 31.7706C39.8631 31.9359 39.3825 32.3475 39.1238 33.0405C38.8633 33.7385 38.8362 34.697 39.3041 35.9473L39.8511 35.7427ZM34.7548 53.2284C38.1467 48.2755 39.7161 44.6846 40.2882 41.9368C40.8631 39.1757 40.4273 37.2825 39.8511 35.7427L39.3041 35.9473C39.8509 37.4086 40.264 39.1881 39.7165 41.8177C39.1663 44.4606 37.6423 47.9784 34.273 52.8984L34.7548 53.2284ZM43.582 69.8038L34.7728 52.9283L34.2551 53.1985L43.0643 70.0741L43.582 69.8038ZM45.8703 69.6979C44.9881 69.6787 44.1354 69.6601 43.3279 69.647L43.3184 70.2309C44.1241 70.244 44.975 70.2625 45.8576 70.2818L45.8703 69.6979ZM66.5406 66.3545C66.2974 67.2184 65.4863 67.9027 64.1612 68.4263C62.8447 68.9466 61.0879 69.2805 59.0791 69.4863C55.0641 69.8977 50.1249 69.7906 45.8703 69.6979L45.8576 70.2818C50.102 70.3742 55.0803 70.4831 59.1387 70.0673C61.1667 69.8595 62.9856 69.5188 64.3759 68.9695C65.7577 68.4234 66.7846 67.6429 67.1027 66.5127L66.5406 66.3545ZM65.5016 63.4187C66.2422 63.7552 66.5619 64.2974 66.6735 64.8446C66.7881 65.4071 66.6818 65.9806 66.5488 66.3296L67.0945 66.5376C67.2578 66.1092 67.3871 65.4218 67.2457 64.728C67.1012 64.0189 66.6731 63.3095 65.7432 62.887L65.5016 63.4187ZM66.1829 57.1817C66.7815 57.6988 67.0997 58.2399 67.2351 58.7697C67.371 59.3017 67.3281 59.8441 67.1686 60.3694C66.8471 61.4291 66.0622 62.3822 65.4305 62.9327L65.8143 63.373C66.4967 62.7782 67.3637 61.7377 67.7275 60.539C67.9108 59.935 67.9688 59.2819 67.8009 58.6251C67.6326 57.9661 67.2423 57.3251 66.5646 56.7397L66.1829 57.1817ZM65.9617 50.4414C66.824 50.8971 67.3319 51.428 67.6054 51.973C67.8789 52.5179 67.9314 53.1034 67.8363 53.6917C67.644 54.882 66.8522 56.0466 66.1639 56.7576L66.5836 57.1638C67.3157 56.4074 68.1941 55.1386 68.4128 53.7848C68.5233 53.101 68.4665 52.3867 68.1274 51.711C67.7883 51.0353 67.1802 50.4248 66.2345 49.9251L65.9617 50.4414ZM66.1796 50.4637C67.5304 50.0711 69.7496 49.3931 71.8052 48.6151C72.8326 48.2263 73.8246 47.8105 74.6489 47.3907C75.4635 46.976 76.1489 46.5406 76.531 46.1024L76.0908 45.7185C75.7881 46.0657 75.1914 46.4591 74.3839 46.8703C73.5861 47.2765 72.616 47.6838 71.5985 48.0689C69.564 48.8388 67.3617 49.5119 66.0166 49.9029L66.1796 50.4637ZM76.531 46.1024C77.436 45.0646 77.8093 44.0958 77.587 43.2656C77.3633 42.4298 76.5757 41.8766 75.5063 41.5763L75.3484 42.1385C76.3407 42.4172 76.8785 42.8773 77.0229 43.4166C77.1688 43.9616 76.953 44.7298 76.0908 45.7185L76.531 46.1024ZM75.5063 41.5763C75.2773 41.5119 74.9677 41.4939 74.6162 41.5021C74.2582 41.5105 73.8322 41.5471 73.3578 41.605C72.4087 41.7209 71.248 41.9245 70.0177 42.1707C67.5562 42.6632 64.7971 43.3298 62.8566 43.8181L62.9991 44.3844C64.9365 43.8969 67.6848 43.2331 70.1323 42.7433C71.3566 42.4984 72.5008 42.298 73.4286 42.1847C73.8927 42.128 74.2981 42.0937 74.6298 42.086C74.968 42.0781 75.2061 42.0986 75.3484 42.1385L75.5063 41.5763ZM62.8499 44.389C62.8697 44.3901 62.8893 44.3914 62.9089 44.3926L62.9467 43.8098C62.926 43.8085 62.9052 43.8072 62.8843 43.806L62.8499 44.389ZM49.2856 47.9764L62.9415 44.3799L62.7928 43.8151L49.1368 47.4117L49.2856 47.9764ZM40.4442 32.3222C42.1203 31.8808 43.4598 32.2334 44.5462 33.0886C45.6471 33.9552 46.5068 35.3537 47.1616 37.0292C48.4706 40.3788 48.9156 44.7164 48.9192 47.6944L49.5032 47.6937C49.4995 44.6793 49.0515 40.2607 47.7056 36.8167C47.0329 35.0954 46.1246 33.5878 44.9074 32.6297C43.6758 31.6602 42.1472 31.2697 40.2955 31.7574L40.4442 32.3222Z" fill="#64FDDC"/>
<path d="M58.2539 35.9715L60.4686 25.6733" stroke="#64FDDC" stroke-width="2.33991" stroke-linecap="round"/>
<path d="M53.6646 37.0841L49.6413 29.7668" stroke="#64FDDC" stroke-width="2.33991" stroke-linecap="round"/>
<path d="M62.5005 39.2005L68.6607 33.4631" stroke="#64FDDC" stroke-width="2.33991" stroke-linecap="round"/>
</svg>
