<svg width="100" height="100" viewBox="0 0 100 100" fill="none" xmlns="http://www.w3.org/2000/svg">
<circle cx="50" cy="50" r="48" stroke="#64FDDC" stroke-width="4"/>
<path fill-rule="evenodd" clip-rule="evenodd" d="M49.989 27.3333C30.4904 27.3333 14.6819 43.1324 14.6667 62.6275H85.3114C85.2961 43.1324 69.4876 27.3333 49.989 27.3333ZM50.6676 48.675L58.2049 42.2543C57.2777 41.7762 56.3204 41.3641 55.3373 41.0228L51.0296 33.5617C55.7496 33.7515 60.176 35.081 64.0414 37.2825L65.4818 36.0555C65.7908 35.7922 66.21 36.2113 65.9467 36.5204L53.3274 51.3344C53.8812 52.885 53.5372 54.6844 52.2956 55.926C50.5783 57.6433 47.7939 57.6433 46.0766 55.926C44.3593 54.2087 44.3593 51.4243 46.0766 49.707C47.3181 48.4656 49.1171 48.1215 50.6676 48.675ZM63.7295 46.2052C66.7677 49.0888 69.2059 52.8123 70.7893 57.0758H78.0968C76.9738 50.8979 73.8735 45.4093 69.4753 41.2894L63.7295 46.2052ZM32.9996 39.0063C36.2584 36.6382 40.0346 34.9389 44.1266 34.11L47.4551 39.8751C44.1497 40.0265 41.013 40.9514 38.1723 42.5004L32.9996 39.0063ZM28.2506 43.3436C24.9076 47.1621 22.5607 51.8747 21.6153 57.0758H26.052C27.5904 52.9336 29.9357 49.301 32.8541 46.4532L28.2506 43.3436ZM50.7408 51.2618C51.5994 52.1204 51.5994 53.5126 50.7408 54.3713C49.8821 55.2299 48.4899 55.2299 47.6312 54.3713C46.7726 53.5126 46.7726 52.1204 47.6313 51.2618C48.4899 50.4031 49.8821 50.4031 50.7408 51.2618Z" fill="#64FDDC"/>
</svg>
