<svg width="100" height="100" viewBox="0 0 100 100" fill="none" xmlns="http://www.w3.org/2000/svg">
<circle cx="50" cy="50" r="48" stroke="#64FDDC" stroke-width="4"/>
<path d="M48.9635 31.6258C48.7218 28.9669 50.0714 28.1007 50.7765 28C58.2698 28 56.9202 40.0861 55.3088 46.1291H69.8121C74.8882 47.8212 72.9343 51.4672 71.3228 53.0787C74.4652 55.9793 71.625 58.9203 69.8121 60.0282C71.7458 62.9288 69.0063 65.2655 67.3949 66.0712C68.8452 67.2798 68.2006 68.992 67.697 69.697C65.2798 73.8063 47.7549 69.9992 39.2947 67.582V47.6399C48.6614 39.4818 49.2657 34.9495 48.9635 31.6258Z" fill="#64FDDC"/>
<rect x="26" y="45.5249" width="10.2732" height="24.1722" rx="3.02152" fill="#64FDDC"/>
</svg>
