<svg width="100" height="100" viewBox="0 0 100 100" fill="none" xmlns="http://www.w3.org/2000/svg">
<circle cx="50" cy="50" r="48.5" stroke="#64FDDC" stroke-width="3"/>
<path d="M62 39.1038C62 46.3408 56.6274 56 50 56C43.3726 56 38 46.3408 38 39.1038C38 31.8668 43.3726 26 50 26C56.6274 26 62 31.8668 62 39.1038Z" fill="#64FDDC"/>
<path fill-rule="evenodd" clip-rule="evenodd" d="M38.5439 52.8379C34.6295 53.744 30.6389 55.4628 28.251 58.6785C25.4857 62.4025 24.8112 68.2129 25.0419 74H74.7309C74.8706 68.6142 74.1902 63.248 71.7104 59.6698C69.328 56.232 65.195 54.3153 61.1688 53.2496C58.2865 57.9325 54.3372 61.256 49.9807 61.256C45.4975 61.256 41.4456 57.7366 38.5439 52.8379Z" fill="#64FDDC"/>
</svg>
