<svg width="70" height="70" viewBox="0 0 70 70" fill="none" xmlns="http://www.w3.org/2000/svg">
<path fill-rule="evenodd" clip-rule="evenodd" d="M35 70C54.33 70 70 54.33 70 35C70 15.67 54.33 0 35 0C15.67 0 0 15.67 0 35C0 54.33 15.67 70 35 70ZM14.4118 23.6084C14.4118 22.5165 15.2969 21.6314 16.3887 21.6314H18.5117C19.6036 21.6314 20.4887 22.5165 20.4887 23.6084V40.9672H16.3888C15.2969 40.9672 14.4118 41.8523 14.4118 42.9442L14.4118 45.0671V23.6084ZM20.4887 40.9672H28.4559C29.5477 40.9672 30.4328 41.8523 30.4328 42.9442V45.0672C30.4328 46.159 29.5477 47.0441 28.4559 47.0441L18.5117 47.0441C19.6036 47.0441 20.4887 46.159 20.4887 45.0671V40.9672ZM19.1565 44.4349C19.1565 45.5268 18.2714 46.4119 17.1796 46.4119H16.7842C15.6923 46.4119 14.8072 45.5268 14.8072 44.4349V44.0347C14.8098 42.9451 15.6939 42.0626 16.7842 42.0626H19.1565V44.4349ZM37.9441 46.2606C39.4762 46.9206 41.3737 47.2506 43.6366 47.2506C45.6873 47.2506 47.4787 46.956 49.0108 46.3667C50.5665 45.7539 51.7804 44.8817 52.6526 43.7503C53.5483 42.6189 53.9961 41.2635 53.9961 39.6843C53.9961 38.27 53.6897 37.1032 53.0769 36.1839C52.464 35.2411 51.5094 34.475 50.2129 33.8857C48.9165 33.2965 47.2312 32.7897 45.1569 32.3654C43.8134 32.0118 42.7291 31.6936 41.9041 31.4108C41.1027 31.1043 40.5252 30.7625 40.1716 30.3854C39.8416 29.9847 39.6766 29.5015 39.6766 28.9358C39.6766 28.0636 40.0066 27.4154 40.6666 26.9911C41.3502 26.5669 42.2694 26.3547 43.4244 26.3547C44.5323 26.3547 45.428 26.5904 46.1116 27.0619C46.8187 27.5097 47.243 28.0401 47.3844 28.6529C47.5023 28.8886 47.6555 29.0536 47.844 29.1479C48.0326 29.2422 48.2448 29.2893 48.4805 29.2893H52.4404C52.6526 29.2893 52.8294 29.2186 52.9708 29.0772C53.1122 28.9122 53.1829 28.7354 53.1829 28.5468C53.1594 27.8161 52.9354 27.0619 52.5111 26.284C52.0869 25.5062 51.4622 24.7754 50.6372 24.0919C49.8358 23.4083 48.8222 22.8544 47.5965 22.4301C46.3944 22.0058 45.0037 21.7937 43.4244 21.7937C41.468 21.7937 39.7827 22.1119 38.3684 22.7483C36.9541 23.3612 35.8581 24.2215 35.0802 25.3294C34.3024 26.4137 33.9134 27.6629 33.9134 29.0772C33.9134 30.4915 34.2199 31.6818 34.8327 32.6482C35.4691 33.5911 36.4002 34.3689 37.6259 34.9818C38.8752 35.5711 40.3837 36.0543 42.1516 36.4314C43.613 36.785 44.7798 37.115 45.6519 37.4214C46.5476 37.7278 47.1958 38.0696 47.5965 38.4468C48.0208 38.8239 48.233 39.3189 48.233 39.9318C48.233 40.7803 47.844 41.4521 47.0662 41.9471C46.3119 42.4421 45.1687 42.6896 43.6366 42.6896C42.6937 42.6896 41.9041 42.5717 41.2677 42.336C40.6312 42.0767 40.1245 41.7585 39.7473 41.3814C39.3937 41.0042 39.1345 40.6153 38.9695 40.2146C38.828 40.026 38.6748 39.8728 38.5098 39.755C38.3448 39.6135 38.1091 39.5428 37.8027 39.5428H34.0195C33.8074 39.5428 33.6306 39.6253 33.4892 39.7903C33.3477 39.9318 33.277 40.0968 33.277 40.2853C33.3242 41.4875 33.7367 42.6189 34.5145 43.6796C35.2924 44.7403 36.4356 45.6006 37.9441 46.2606Z" fill="#C9D4F3"/>
</svg>
